<?xml version="1.0" standalone="no"?>
<!DOCTYPE svg PUBLIC "-//W3C//DTD SVG 20010904//EN"
 "http://www.w3.org/TR/2001/REC-SVG-20010904/DTD/svg10.dtd">
<svg version="1.0" xmlns="http://www.w3.org/2000/svg"
 width="260.000000pt" height="260.000000pt" viewBox="0 0 260.000000 260.000000"
 preserveAspectRatio="xMidYMid meet">
<metadata>
Created by potrace 1.11, written by Peter Selinger 2001-2013
</metadata>
<g transform="translate(0.000000,260.000000) scale(0.100000,-0.100000)"
fill="#000000" stroke="none">
<path d="M525 2585 c-235 -52 -410 -208 -492 -440 l-28 -80 0 -765 0 -765 28
-80 c73 -206 212 -346 416 -419 l86 -31 765 0 765 0 80 28 c206 73 346 212
419 416 l31 86 3 731 c3 831 4 814 -73 972 -64 130 -157 223 -287 287 -155 76
-140 75 -943 74 -549 0 -724 -4 -770 -14z m896 -380 c186 -39 325 -174 373
-361 23 -90 23 -986 0 -1084 -54 -229 -261 -379 -523 -380 -278 0 -473 136
-536 375 -22 86 -22 1002 0 1088 48 185 187 322 367 361 86 19 231 19 319 1z"/>
<path d="M1165 2007 c-129 -43 -193 -118 -215 -248 -13 -84 -13 -834 0 -918
21 -129 93 -211 214 -246 125 -36 262 -1 341 87 80 89 80 94 77 623 -2 366 -6
470 -17 511 -20 69 -87 144 -157 174 -65 28 -184 36 -243 17z m169 -548 c59
-46 74 -130 33 -190 -53 -79 -151 -79 -204 0 -59 87 1 211 102 211 28 0 51 -7
69 -21z m-14 -382 c39 -19 70 -74 70 -122 0 -132 -155 -184 -227 -76 -58 86 2
211 102 211 17 0 41 -6 55 -13z"/>
</g>
</svg>
